<?xml version="1.0" encoding="UTF-8" standalone="no"?>
<!-- Created with Inkscape (http://www.inkscape.org/) -->

<svg
   xmlns:dc="http://purl.org/dc/elements/1.1/"
   xmlns:cc="http://creativecommons.org/ns#"
   xmlns:rdf="http://www.w3.org/1999/02/22-rdf-syntax-ns#"
   xmlns:svg="http://www.w3.org/2000/svg"
   xmlns="http://www.w3.org/2000/svg"
   xmlns:sodipodi="http://sodipodi.sourceforge.net/DTD/sodipodi-0.dtd"
   xmlns:inkscape="http://www.inkscape.org/namespaces/inkscape"
   width="744.09448819"
   height="1052.3622047"
   id="svg2"
   version="1.1"
   inkscape:version="0.48.2 r9819"
   sodipodi:docname="New document 1">
  <defs
     id="defs4" />
  <sodipodi:namedview
     id="base"
     pagecolor="#ffffff"
     bordercolor="#666666"
     borderopacity="1.0"
     inkscape:pageopacity="0.0"
     inkscape:pageshadow="2"
     inkscape:zoom="0.35"
     inkscape:cx="603.57143"
     inkscape:cy="520"
     inkscape:document-units="px"
     inkscape:current-layer="layer1"
     showgrid="false"
     inkscape:window-width="834"
     inkscape:window-height="749"
     inkscape:window-x="165"
     inkscape:window-y="31"
     inkscape:window-maximized="0" />
  <metadata
     id="metadata7">
    <rdf:RDF>
      <cc:Work
         rdf:about="">
        <dc:format>image/svg+xml</dc:format>
        <dc:type
           rdf:resource="http://purl.org/dc/dcmitype/StillImage" />
        <dc:title></dc:title>
      </cc:Work>
    </rdf:RDF>
  </metadata>
  <g
     inkscape:label="Layer 1"
     inkscape:groupmode="layer"
     id="layer1">
    <path
       style="fill:#000000"
       d="M 357.8125 259.625 C 344.12081 259.64381 332.04705 260.03572 318.15625 260.78125 C 304.95625 261.4897 273.23125 263.19827 247.65625 264.5625 C 183.75504 267.97113 173.87116 268.72852 163.75 270.9375 C 147.50898 274.48215 138.91775 280.57105 133.6875 292.3125 C 128.94173 302.96632 127.22392 313.41162 123.625 353 C 123.05 359.325 121.94158 371.025 121.15625 379 C 120.37091 386.975 119.03915 400.7 118.1875 409.5 C 117.33585 418.3 115.9563 432.475 115.125 441 C 111.18239 481.43137 110.66377 490.28813 111.65625 502.5 C 112.19265 509.1 112.89367 516.07815 113.21875 518 C 113.54383 519.92184 114.46139 527.57184 115.25 535 C 116.03861 542.42815 117.35947 554.35 118.15625 561.5 C 118.95304 568.65 120.29733 580.8 121.15625 588.5 C 122.01518 596.2 123.36632 608.35 124.15625 615.5 C 126.59259 637.55253 128.48626 652.6577 129.625 658.9375 C 131.71 670.43557 135.68181 677.21018 142.03125 680.09375 C 145.98642 681.88992 153.51047 681.94755 356.4375 681.96875 C 592.30298 681.99338 577.40996 682.45886 584.78125 675.09375 C 591.81185 668.06904 592.45031 663.82078 602.0625 560.5 C 602.88118 551.7 604.00365 540 604.5625 534.5 C 605.86035 521.72674 605.88486 461.86775 604.59375 452 C 603.19128 441.28118 600.72843 419.70927 599.125 404 C 598.36713 396.575 597.04242 383.75 596.15625 375.5 C 595.27009 367.25 593.91936 354.425 593.15625 347 C 592.39313 339.575 591.28527 328.775 590.6875 323 C 587.13083 288.63933 579.39416 276.69621 557 270.96875 C 544.2521 267.70839 538.41153 267.09324 506.03125 265.53125 C 489.04312 264.71176 466.38125 263.60302 455.65625 263.0625 C 407.94573 260.65796 380.63199 259.59365 357.8125 259.625 z M 539.4375 577.03125 C 545.96741 577.06123 552.55959 579.30865 558.03125 584.125 C 563.07452 588.56427 565.58425 592.76876 567.59375 600.1875 C 570.53665 611.05219 563.62533 624.9557 552.4375 630.625 C 547.17861 633.28988 537.01737 634.56468 532.65625 633.125 C 516.78142 627.88442 507.52892 612.88682 511.28125 598.4375 C 514.77708 584.97592 526.97131 576.97401 539.4375 577.03125 z M 178.96875 579.0625 C 179.50728 579.04627 180.08691 579.0625 180.65625 579.0625 C 192.48252 579.0625 201.50523 584.5 206.625 594.6875 C 209.95471 601.31308 210.04383 611.53198 206.8125 618.1875 C 204.08419 623.80696 197.03197 630.51808 191.3125 632.96875 C 172.24884 641.13713 152.2007 627.57327 152.1875 606.5 C 152.18222 598.09815 154.16719 593.43453 160.40625 587.1875 C 166.14263 581.44379 170.89087 579.30601 178.96875 579.0625 z M 574.65625 687.96875 L 539.90625 688.25 L 505.15625 688.5 L 505.15625 709.5 C 505.15625 730.09878 505.19643 730.61237 507.78125 736.125 C 512.81399 746.85832 521.79711 754.29743 532.625 756.6875 C 546.06044 759.65313 559.94147 754.31135 567.96875 743.125 C 574.08016 734.6085 574.65625 731.74304 574.65625 708.71875 L 574.65625 687.96875 z M 146.65625 689.96875 L 146.65625 709.0625 C 146.65625 729.52084 147.46716 735.02407 151.4375 741.5 C 156.42931 749.642 162.89249 754.98693 170.96875 757.625 C 177.76267 759.8442 189.98305 758.86842 196.84375 755.5625 C 203.51827 752.3463 210.23093 745.5436 213.6875 738.5 C 216.0613 733.6628 216.15625 732.79998 216.15625 712 L 216.15625 690.5 L 181.40625 690.25 L 146.65625 689.96875 z "
       id="path3066"
       inkscape:export-filename="/Users/pat/24X_ucsb.png"
       inkscape:export-xdpi="36.41"
       inkscape:export-ydpi="36.41" />
    <text
       xml:space="preserve"
       style="font-size:201.21385193px;font-style:normal;font-variant:normal;font-weight:normal;font-stretch:normal;text-align:start;line-height:125%;letter-spacing:0px;word-spacing:0px;writing-mode:lr-tb;text-anchor:start;fill:#000000;fill-opacity:1;stroke:none;font-family:Times New Roman;-inkscape-font-specification:Times New Roman"
       x="205.11169"
       y="463.79077"
       id="text3839"
       sodipodi:linespacing="125%"
       inkscape:export-filename="/Users/pat/24X_ucsb.png"
       inkscape:export-xdpi="36.41"
       inkscape:export-ydpi="36.41"><tspan
         sodipodi:role="line"
         id="tspan3841"
         x="205.11169"
         y="463.79077"
         style="fill:#ffffff;font-family:impact;-inkscape-font-specification:impact">24X</tspan></text>
    <text
       sodipodi:linespacing="125%"
       id="text3843"
       y="584.82727"
       x="207.48955"
       style="font-size:138.78012085px;font-style:normal;font-variant:normal;font-weight:normal;font-stretch:normal;text-align:start;line-height:125%;letter-spacing:0px;word-spacing:0px;writing-mode:lr-tb;text-anchor:start;fill:#000000;fill-opacity:1;stroke:none;font-family:Times New Roman;-inkscape-font-specification:Times New Roman"
       xml:space="preserve"
       inkscape:export-filename="/Users/pat/24X_ucsb.png"
       inkscape:export-xdpi="36.41"
       inkscape:export-ydpi="36.41"><tspan
         style="fill:#ffffff;font-family:impact;-inkscape-font-specification:impact"
         y="584.82727"
         x="207.48955"
         id="tspan3845"
         sodipodi:role="line">UCSB</tspan></text>
  </g>
</svg>
